<svg xmlns="http://www.w3.org/2000/svg" width="920" height="620" viewBox="0 0 920 620">
<rect width="100%" height="100%" fill="white"/>
<style>text{font-family:Arial,Helvetica,sans-serif;fill:#111}.axis{stroke:#111;stroke-width:1.2}.grid{stroke:#ddd;stroke-width:1}.curve{fill:none;stroke:#111;stroke-width:1.8}.err{stroke:#666;stroke-width:1}.label{font-size:14px}.small{font-size:12px}.title{font-size:19px;font-weight:600}</style>
<text class="title" x="460.0" y="28" text-anchor="middle">Stage 3.11 — reproduced Figure-3 trade-off</text>
<line class="grid" x1="90" y1="535.00" x2="880" y2="535.00"/>
<text class="small" x="78" y="539.00" text-anchor="end">0</text>
<line class="grid" x1="90" y1="466.43" x2="880" y2="466.43"/>
<text class="small" x="78" y="470.43" text-anchor="end">0.5</text>
<line class="grid" x1="90" y1="397.86" x2="880" y2="397.86"/>
<text class="small" x="78" y="401.86" text-anchor="end">1</text>
<line class="grid" x1="90" y1="329.29" x2="880" y2="329.29"/>
<text class="small" x="78" y="333.29" text-anchor="end">1.5</text>
<line class="grid" x1="90" y1="260.71" x2="880" y2="260.71"/>
<text class="small" x="78" y="264.71" text-anchor="end">2</text>
<line class="grid" x1="90" y1="192.14" x2="880" y2="192.14"/>
<text class="small" x="78" y="196.14" text-anchor="end">2.5</text>
<line class="grid" x1="90" y1="123.57" x2="880" y2="123.57"/>
<text class="small" x="78" y="127.57" text-anchor="end">3</text>
<line class="grid" x1="90" y1="55.00" x2="880" y2="55.00"/>
<text class="small" x="78" y="59.00" text-anchor="end">3.5</text>
<line class="grid" x1="125.91" y1="55" x2="125.91" y2="535"/>
<text class="small" x="125.91" y="559" text-anchor="middle">1</text>
<line class="grid" x1="305.45" y1="55" x2="305.45" y2="535"/>
<text class="small" x="305.45" y="559" text-anchor="middle">2</text>
<line class="grid" x1="485.00" y1="55" x2="485.00" y2="535"/>
<text class="small" x="485.00" y="559" text-anchor="middle">3</text>
<line class="grid" x1="664.55" y1="55" x2="664.55" y2="535"/>
<text class="small" x="664.55" y="559" text-anchor="middle">4</text>
<line class="grid" x1="844.09" y1="55" x2="844.09" y2="535"/>
<text class="small" x="844.09" y="559" text-anchor="middle">5</text>
<line class="axis" x1="90" y1="535" x2="880" y2="535"/>
<line class="axis" x1="90" y1="55" x2="90" y2="535"/>
<text class="label" x="485.00" y="592" text-anchor="middle">Bits / word (author-compatible)</text>
<text class="label" x="24" y="295.00" text-anchor="middle" transform="rotate(-90 24 295.00)">KL(Q_stego || P_LM), bits</text>
<polyline class="curve" points="125.91,230.10 305.45,181.40 485.00,139.15 664.55,102.85 844.09,83.44"/>
<line class="err" x1="125.91" y1="230.10" x2="125.91" y2="230.10"/>
<line class="err" x1="125.91" y1="227.23" x2="125.91" y2="232.97"/>
<rect x="121.91" y="226.10" width="8" height="8" fill="white" stroke="black" stroke-width="1.4"/>
<line class="err" x1="305.45" y1="181.40" x2="305.45" y2="181.40"/>
<line class="err" x1="305.45" y1="177.32" x2="305.45" y2="185.49"/>
<rect x="301.45" y="177.40" width="8" height="8" fill="white" stroke="black" stroke-width="1.4"/>
<line class="err" x1="485.00" y1="139.15" x2="485.00" y2="139.15"/>
<line class="err" x1="485.00" y1="134.26" x2="485.00" y2="144.05"/>
<rect x="481.00" y="135.15" width="8" height="8" fill="white" stroke="black" stroke-width="1.4"/>
<line class="err" x1="664.55" y1="102.85" x2="664.55" y2="102.85"/>
<line class="err" x1="664.55" y1="97.09" x2="664.55" y2="108.60"/>
<rect x="660.55" y="98.85" width="8" height="8" fill="white" stroke="black" stroke-width="1.4"/>
<line class="err" x1="844.09" y1="83.44" x2="844.09" y2="83.44"/>
<line class="err" x1="844.09" y1="79.32" x2="844.09" y2="87.55"/>
<rect x="840.09" y="79.44" width="8" height="8" fill="white" stroke="black" stroke-width="1.4"/>
<polyline class="curve" points="125.91,271.03 269.68,320.03 373.20,369.16 467.53,405.65 542.79,427.81 612.59,445.91 676.18,462.70 717.28,462.99" stroke-dasharray="7 4"/>
<line class="err" x1="125.91" y1="271.03" x2="125.91" y2="271.03"/>
<line class="err" x1="125.91" y1="267.81" x2="125.91" y2="274.25"/>
<polygon points="125.91,266.03 120.91,275.03 130.91,275.03" fill="white" stroke="black" stroke-width="1.4"/>
<line class="err" x1="267.53" y1="320.03" x2="271.83" y2="320.03"/>
<line class="err" x1="269.68" y1="315.44" x2="269.68" y2="324.61"/>
<polygon points="269.68,315.03 264.68,324.03 274.68,324.03" fill="white" stroke="black" stroke-width="1.4"/>
<line class="err" x1="370.16" y1="369.16" x2="376.24" y2="369.16"/>
<line class="err" x1="373.20" y1="364.78" x2="373.20" y2="373.54"/>
<polygon points="373.20,364.16 368.20,373.16 378.20,373.16" fill="white" stroke="black" stroke-width="1.4"/>
<line class="err" x1="463.03" y1="405.65" x2="472.03" y2="405.65"/>
<line class="err" x1="467.53" y1="401.69" x2="467.53" y2="409.61"/>
<polygon points="467.53,400.65 462.53,409.65 472.53,409.65" fill="white" stroke="black" stroke-width="1.4"/>
<line class="err" x1="537.30" y1="427.81" x2="548.27" y2="427.81"/>
<line class="err" x1="542.79" y1="424.03" x2="542.79" y2="431.59"/>
<polygon points="542.79,422.81 537.79,431.81 547.79,431.81" fill="white" stroke="black" stroke-width="1.4"/>
<line class="err" x1="605.43" y1="445.91" x2="619.76" y2="445.91"/>
<line class="err" x1="612.59" y1="442.36" x2="612.59" y2="449.45"/>
<polygon points="612.59,440.91 607.59,449.91 617.59,449.91" fill="white" stroke="black" stroke-width="1.4"/>
<line class="err" x1="667.40" y1="462.70" x2="684.96" y2="462.70"/>
<line class="err" x1="676.18" y1="459.87" x2="676.18" y2="465.52"/>
<polygon points="676.18,457.70 671.18,466.70 681.18,466.70" fill="white" stroke="black" stroke-width="1.4"/>
<line class="err" x1="708.06" y1="462.99" x2="726.50" y2="462.99"/>
<line class="err" x1="717.28" y1="459.19" x2="717.28" y2="466.78"/>
<polygon points="717.28,457.99 712.28,466.99 722.28,466.99" fill="white" stroke="black" stroke-width="1.4"/>
<polyline class="curve" points="126.13,415.28 189.51,444.96 265.83,469.35 353.39,490.41 433.18,507.71 520.70,517.36 620.04,521.17 694.41,517.67 792.43,507.45" stroke-dasharray="2 3"/>
<line class="err" x1="120.99" y1="415.28" x2="131.27" y2="415.28"/>
<line class="err" x1="126.13" y1="413.36" x2="126.13" y2="417.19"/>
<circle cx="126.13" cy="415.28" r="4" fill="white" stroke="black" stroke-width="1.4"/>
<line class="err" x1="182.66" y1="444.96" x2="196.36" y2="444.96"/>
<line class="err" x1="189.51" y1="443.38" x2="189.51" y2="446.55"/>
<circle cx="189.51" cy="444.96" r="4" fill="white" stroke="black" stroke-width="1.4"/>
<line class="err" x1="256.81" y1="469.35" x2="274.86" y2="469.35"/>
<line class="err" x1="265.83" y1="468.28" x2="265.83" y2="470.42"/>
<circle cx="265.83" cy="469.35" r="4" fill="white" stroke="black" stroke-width="1.4"/>
<line class="err" x1="344.20" y1="490.41" x2="362.57" y2="490.41"/>
<line class="err" x1="353.39" y1="489.68" x2="353.39" y2="491.13"/>
<circle cx="353.39" cy="490.41" r="4" fill="white" stroke="black" stroke-width="1.4"/>
<line class="err" x1="423.42" y1="507.71" x2="442.94" y2="507.71"/>
<line class="err" x1="433.18" y1="507.19" x2="433.18" y2="508.23"/>
<circle cx="433.18" cy="507.71" r="4" fill="white" stroke="black" stroke-width="1.4"/>
<line class="err" x1="511.46" y1="517.36" x2="529.93" y2="517.36"/>
<line class="err" x1="520.70" y1="516.91" x2="520.70" y2="517.81"/>
<circle cx="520.70" cy="517.36" r="4" fill="white" stroke="black" stroke-width="1.4"/>
<line class="err" x1="608.65" y1="521.17" x2="631.42" y2="521.17"/>
<line class="err" x1="620.04" y1="520.77" x2="620.04" y2="521.57"/>
<circle cx="620.04" cy="521.17" r="4" fill="white" stroke="black" stroke-width="1.4"/>
<line class="err" x1="683.74" y1="517.67" x2="705.07" y2="517.67"/>
<line class="err" x1="694.41" y1="517.24" x2="694.41" y2="518.10"/>
<circle cx="694.41" cy="517.67" r="4" fill="white" stroke="black" stroke-width="1.4"/>
<line class="err" x1="782.06" y1="507.45" x2="802.81" y2="507.45"/>
<line class="err" x1="792.43" y1="507.07" x2="792.43" y2="507.84"/>
<circle cx="792.43" cy="507.45" r="4" fill="white" stroke="black" stroke-width="1.4"/>
<polygon points="781.48,526.91 783.54,532.08 789.09,532.44 784.81,535.99 786.18,541.38 781.48,538.41 776.78,541.38 778.15,535.99 773.87,532.44 779.42,532.08" fill="white" stroke="black" stroke-width="1.5"/>
<rect x="646.00" y="84.00" width="8" height="8" fill="white" stroke="black" stroke-width="1.4"/>
<text class="small" x="668" y="92">Bins / Block</text>
<polygon points="650.00,108.00 645.00,117.00 655.00,117.00" fill="white" stroke="black" stroke-width="1.4"/>
<text class="small" x="668" y="117">Huffman</text>
<circle cx="650.00" cy="138.00" r="4" fill="white" stroke="black" stroke-width="1.4"/>
<text class="small" x="668" y="142">Arithmetic k=300</text>
<polygon points="650.00,155.00 652.06,160.17 657.61,160.53 653.33,164.08 654.70,169.47 650.00,166.50 645.30,169.47 646.67,164.08 642.39,160.53 647.94,160.17" fill="white" stroke="black" stroke-width="1.5"/>
<text class="small" x="668" y="167">Arithmetic k=50256</text>
<text class="small" x="90" y="612">Error bars: run-level SE. Sentence means are conditional on successful termination.</text>
</svg>
